<?xml version="1.0" encoding="UTF-8"?>
<svg xmlns="http://www.w3.org/2000/svg" viewBox="0 0 880 420" width="880" height="420">
  <rect width="100%" height="100%" fill="#fafafa"/>
  <text x="440" y="24" text-anchor="middle" font-size="16" font-weight="600" fill="#171717">Merge throughput vs number of objects</text>
  <rect x="151.60000000000002" y="43.5" width="14" height="3" fill="#2563eb" rx="1"/>
  <text x="171.60000000000002" y="45" dominant-baseline="middle" font-size="11" fill="#171717" font-weight="600">deep-merge-many</text>
  <rect x="284.6" y="43.5" width="14" height="3" fill="#dc2626" rx="1"/>
  <text x="304.6" y="45" dominant-baseline="middle" font-size="11" fill="#171717" font-weight="400">@fastify/deepmerge</text>
  <rect x="436.20000000000005" y="43.5" width="14" height="3" fill="#16a34a" rx="1"/>
  <text x="456.20000000000005" y="45" dominant-baseline="middle" font-size="11" fill="#171717" font-weight="400">ts-deepmerge</text>
  <rect x="550.6" y="43.5" width="14" height="3" fill="#ca8a04" rx="1"/>
  <text x="570.6" y="45" dominant-baseline="middle" font-size="11" fill="#171717" font-weight="400">deepmerge</text>
  <rect x="646.4000000000001" y="43.5" width="14" height="3" fill="#9333ea" rx="1"/>
  <text x="666.4000000000001" y="45" dominant-baseline="middle" font-size="11" fill="#171717" font-weight="400">deep-merge</text>
  <line x1="72" y1="364" x2="856" y2="364" stroke="#f0f0f0"/>
        <text x="64" y="368" text-anchor="end" font-size="11" fill="#737373">0</text><line x1="72" y1="289.5" x2="856" y2="289.5" stroke="#f0f0f0"/>
        <text x="64" y="293.5" text-anchor="end" font-size="11" fill="#737373">27k</text><line x1="72" y1="215" x2="856" y2="215" stroke="#f0f0f0"/>
        <text x="64" y="219" text-anchor="end" font-size="11" fill="#737373">55k</text><line x1="72" y1="140.5" x2="856" y2="140.5" stroke="#f0f0f0"/>
        <text x="64" y="144.5" text-anchor="end" font-size="11" fill="#737373">82k</text><line x1="72" y1="66" x2="856" y2="66" stroke="#f0f0f0"/>
        <text x="64" y="70" text-anchor="end" font-size="11" fill="#737373">110k</text>
  <polyline fill="none" stroke="#2563eb" stroke-width="3" points="72,99.38749546761568 268,171.99126934789186 464,259.83760244615195 660,305.00320022350616 856,331.1485656623147"/><polyline fill="none" stroke="#dc2626" stroke-width="2" points="72,66 268,218.12411051652978 464,308.21272300364035 660,336.73298899733777 856,349.9399131046623"/><polyline fill="none" stroke="#16a34a" stroke-width="2" points="72,244.6255771853285 268,307.0906786292982 464,343.0128988118916 660,353.7048209414403 856,358.68389597849347"/><polyline fill="none" stroke="#ca8a04" stroke-width="2" points="72,295.4021817946191 268,331.9416212026489 464,351.68355928188316 660,358.0266699035409 856,360.9664478122261"/><polyline fill="none" stroke="#9333ea" stroke-width="2" points="72,120.62165807937478 268,241.84000952396576 464,315.15430317033724 660,339.70712500472496 856,351.88902826768106"/>
  <text x="72" y="388" text-anchor="middle" font-size="12" fill="#525252">5</text><text x="268" y="388" text-anchor="middle" font-size="12" fill="#525252">10</text><text x="464" y="388" text-anchor="middle" font-size="12" fill="#525252">25</text><text x="660" y="388" text-anchor="middle" font-size="12" fill="#525252">50</text><text x="856" y="388" text-anchor="middle" font-size="12" fill="#525252">100</text>
  <text x="440" y="412" text-anchor="middle" font-size="12" fill="#525252">Number of objects merged</text>
  <text x="16" y="210" text-anchor="middle" font-size="12" fill="#525252" transform="rotate(-90 16 210)">ops/sec</text>
</svg>