<?xml version="1.0" encoding="UTF-8"?>
<svg xmlns="http://www.w3.org/2000/svg" viewBox="0 0 880 420" width="880" height="420">
  <rect width="100%" height="100%" fill="#fafafa"/>
  <text x="440" y="28" text-anchor="middle" font-size="16" font-weight="600" fill="#171717">Merge throughput vs number of objects</text>
  <rect x="72" y="12" width="12" height="3" fill="#2563eb"/>
        <text x="90" y="20" font-size="12" fill="#171717">deep-merge-many</text><rect x="232" y="12" width="12" height="3" fill="#dc2626"/>
        <text x="250" y="20" font-size="12" fill="#171717">@fastify/deepmerge</text><rect x="392" y="12" width="12" height="3" fill="#16a34a"/>
        <text x="410" y="20" font-size="12" fill="#171717">ts-deepmerge</text><rect x="552" y="12" width="12" height="3" fill="#ca8a04"/>
        <text x="570" y="20" font-size="12" fill="#171717">deepmerge</text><rect x="712" y="12" width="12" height="3" fill="#9333ea"/>
        <text x="730" y="20" font-size="12" fill="#171717">deep-merge</text>
  <line x1="72" y1="364" x2="856" y2="364" stroke="#f0f0f0"/>
        <text x="64" y="368" text-anchor="end" font-size="11" fill="#737373">0</text><line x1="72" y1="285" x2="856" y2="285" stroke="#f0f0f0"/>
        <text x="64" y="289" text-anchor="end" font-size="11" fill="#737373">25k</text><line x1="72" y1="206" x2="856" y2="206" stroke="#f0f0f0"/>
        <text x="64" y="210" text-anchor="end" font-size="11" fill="#737373">51k</text><line x1="72" y1="127" x2="856" y2="127" stroke="#f0f0f0"/>
        <text x="64" y="131" text-anchor="end" font-size="11" fill="#737373">76k</text><line x1="72" y1="48" x2="856" y2="48" stroke="#f0f0f0"/>
        <text x="64" y="52" text-anchor="end" font-size="11" fill="#737373">102k</text>
  <polyline fill="none" stroke="#2563eb" stroke-width="3" points="72,69.59536863479224 268,142.767433496478 464,239.26975992203762 660,293.61687515589836 856,325.5595272889934"/><polyline fill="none" stroke="#dc2626" stroke-width="2" points="72,48 268,200.87496882710758 464,298.3160136667319 660,330.8751917191674 856,347.76191629655307"/><polyline fill="none" stroke="#16a34a" stroke-width="2" points="72,227.63825324182721 268,301.5125934144119 464,339.3603344506615 660,351.4358280482085 856,357.75025441871094"/><polyline fill="none" stroke="#ca8a04" stroke-width="2" points="72,287.5166779457488 268,328.1624954233263 464,349.73644230530675 660,356.92527984406064 856,360.48189786370233"/><polyline fill="none" stroke="#9333ea" stroke-width="2" points="72,109.13987009380003 268,237.7368169918842 464,313.03993558299953 660,336.00877711182346 856,350.04156506103044"/>
  <text x="72" y="388" text-anchor="middle" font-size="12" fill="#525252">5</text><text x="268" y="388" text-anchor="middle" font-size="12" fill="#525252">10</text><text x="464" y="388" text-anchor="middle" font-size="12" fill="#525252">25</text><text x="660" y="388" text-anchor="middle" font-size="12" fill="#525252">50</text><text x="856" y="388" text-anchor="middle" font-size="12" fill="#525252">100</text>
  <text x="440" y="412" text-anchor="middle" font-size="12" fill="#525252">Number of objects merged</text>
  <text x="16" y="210" text-anchor="middle" font-size="12" fill="#525252" transform="rotate(-90 16 210)">ops/sec</text>
</svg>